<?xml version="1.0" encoding="UTF-8"?><svg id="a" xmlns="http://www.w3.org/2000/svg" viewBox="0 0 198.75 240.01"><path d="M85.81,186.02c0,8.97,0,17.95,0,26.92,0,10.12-4.61,15.06-14.75,15.81-.74,.06-1.5,.04-2.24,.04-7.77,.06-7.84,.05-8.41,7.78-.15,2.03-1.05,2.99-2.89,3.17-1.73,.17-3.48,.22-5.23,.23-15.46,.02-30.92,.02-46.38,0-5.25,0-5.87-.64-5.89-5.75q-.03-8.34,8.54-8.96c4.49-.32,6.92-3.37,8.04-7.8,2.31-9.13,1.29-18.34,1.31-27.5,.13-42.5-.02-85.01,.12-127.51,.03-8.48-3.99-14.75-13.81-14.67-2.74,.02-4.15-1.31-4.18-4.1-.09-10.04-.57-9.97,9.26-9.9,13.59,.1,27.18,.02,40.77,.02,1.12,0,2.25,.02,3.37-.02,7.36-.26,7.45-.27,7.64,6.99,.07,2.56,.98,3.67,3.55,3.52,1.86-.11,3.74-.03,5.61,0,10.44,.14,16.22,5.77,16.28,16.24,.11,18.2,.04,36.39,.04,54.59q0,5.44,5.53,5.44c5.11,0,10.24-.22,15.33,.07,3.72,.22,4.95-.86,4.9-4.75-.21-16.95-.09-33.9-.1-50.85,0-3.5,.32-7,1.43-10.28,2.65-7.83,9.25-9.76,16.53-10.41,.99-.09,2.01-.17,2.99-.03,3.69,.53,4.71-1.1,4.58-4.64-.21-5.62,.22-5.86,5.91-5.86,16.71,0,33.41-.01,50.12,0,4.51,0,4.9,.41,4.98,4.89,.01,.75,0,1.5,0,2.24,0,5.91,.02,6-5.83,7.06-7.05,1.27-11.42,3.67-11.61,13.12-.12,5.81-.46,11.67-.47,17.5-.05,39.64,0,79.27-.07,118.91-.01,5.98,.33,11.93,.83,17.87,.5,5.97,4.5,9.64,10.59,9.85,6.28,.21,6.34,.28,6.38,6.69,0,.62,.06,1.25,.07,1.87,.16,5.43-.47,6.14-5.82,6.15-16.46,.03-32.91,.03-49.37,0-4.74,0-5.47-.8-5.6-5.73-.16-5.92-.5-6.24-6.53-6.27-.37,0-.75,0-1.12,0-12.75-.1-17.96-5.32-17.97-18.09-.02-17.45,0-34.9,0-52.35q0-5.03-5.19-5.04c-5.86,0-11.72,.11-17.58-.05-2.75-.07-3.73,.84-3.69,3.64,.13,9.97,.05,19.94,.05,29.91Z"/><path d="M119.8,20.72c-.7,11.62-9.59,20.42-21.62,19.94-11.24-.45-19.6-10.11-19.26-20.76,.36-11.13,9.01-21.09,23.07-19.78,9.46,.88,18.29,10.74,17.82,20.6Z"/></svg>